<svg width="28" height="28" viewBox="0 0 28 28" fill="none" xmlns="http://www.w3.org/2000/svg">
<circle cx="14" cy="14" r="14" fill="#FFF9F1"/>
<path opacity="0.3" fill-rule="evenodd" clip-rule="evenodd" d="M14.5 5.58337V10.7292C14.5 11.0244 14.61 11.309 14.8085 11.5275C15.0069 11.7461 15.2797 11.8828 15.5735 11.9112L15.6875 11.9167H20.8334V19.8334C20.8335 20.2328 20.6826 20.6176 20.411 20.9105C20.1394 21.2034 19.7671 21.3828 19.3688 21.4128L19.25 21.4167H9.75002C9.35056 21.4168 8.96582 21.266 8.67292 20.9944C8.38002 20.7227 8.2006 20.3505 8.17065 19.9521L8.16669 19.8334V7.16671C8.16656 6.76725 8.31743 6.38251 8.58904 6.08961C8.86065 5.7967 9.23294 5.61729 9.63127 5.58733L9.75002 5.58337H14.5Z" fill="#945C2D"/>
<path fill-rule="evenodd" clip-rule="evenodd" d="M16.0833 5.61743C16.3393 5.67178 16.5779 5.78874 16.7776 5.95785L16.875 6.04731L20.3694 9.54172C20.5547 9.72697 20.6916 9.95576 20.7668 10.2067L20.7985 10.3334H16.0833V5.61743ZM13.9403 12.8453L12.2612 14.5245C12.1855 14.5975 12.1252 14.6849 12.0837 14.7814C12.0423 14.878 12.0204 14.9819 12.0195 15.087C12.0186 15.1921 12.0386 15.2964 12.0784 15.3937C12.1182 15.491 12.177 15.5794 12.2513 15.6537C12.3257 15.728 12.4141 15.7868 12.5114 15.8266C12.6087 15.8664 12.7129 15.8865 12.818 15.8855C12.9231 15.8846 13.027 15.8628 13.1236 15.8213C13.2202 15.7798 13.3075 15.7195 13.3806 15.6439L13.7083 15.3161V17.4584C13.7083 17.6684 13.7917 17.8697 13.9402 18.0182C14.0887 18.1666 14.29 18.2501 14.5 18.2501C14.71 18.2501 14.9113 18.1666 15.0598 18.0182C15.2082 17.8697 15.2917 17.6684 15.2917 17.4584V15.3161L15.6194 15.6439C15.6924 15.7195 15.7798 15.7798 15.8764 15.8213C15.973 15.8628 16.0768 15.8846 16.182 15.8855C16.2871 15.8865 16.3913 15.8664 16.4886 15.8266C16.5859 15.7868 16.6743 15.728 16.7486 15.6537C16.823 15.5794 16.8818 15.491 16.9216 15.3937C16.9614 15.2964 16.9814 15.1921 16.9805 15.087C16.9796 14.9819 16.9577 14.878 16.9162 14.7814C16.8747 14.6849 16.8144 14.5975 16.7388 14.5245L15.0605 12.8453C14.987 12.7717 14.8997 12.7133 14.8035 12.6735C14.7074 12.6337 14.6044 12.6132 14.5004 12.6132C14.3963 12.6132 14.2933 12.6337 14.1972 12.6735C14.1011 12.7133 14.0138 12.7717 13.9403 12.8453Z" fill="#945C2D"/>
</svg>
